# xmcd
#
# Track frame offsets: 
#        150
#        12762
#        25909
#        38934
#        49371
#        61752
#        72651
#        84013
#        96711
#        107260
#        118812
#        134874
#        148916
#        161401
#        169588
#        191489
#        206161
#        219801
#        233725
#        246884
#        259282
#        270731
#        281915
#        292991
#        304163
#        314156
#        326243
#        336513
#
# Disc length: 4674 seconds
#
# Revision: 0
# Processed by: cddbd v1.5.2PL0 Copyright (c) Steve Scherf et al.
# Submitted via: ExactAudioCopyFreeDBPlugin 1.0
#
DISCID=bb12401c
DTITLE=Elmore James - Dust my Broom CD2 (Compilation Blues Characters)
DYEAR=1900
DGENRE=Blues
TTITLE0=The sky is crying
TTITLE1=Dust my broom
TTITLE2=Held my baby last night
TTITLE3=I can't hold out
TTITLE4=The sun is shining
TTITLE5=Stormy Monday blues
TTITLE6=Rollin' and tumblin'
TTITLE7=I'm worried
TTITLE8=Done somebody wrong
TTITLE9=Fine little mama
TTITLE10=I need you
TTITLE11=Strange angels
TTITLE12=Early one morning
TTITLE13=She done moved
TTITLE14=Something inside me
TTITLE15=Stranger blues
TTITLE16=Anne Lee
TTITLE17=My bleeding heart
TTITLE18=My kind of woman
TTITLE19=Got to move
TTITLE20=So unkind
TTITLE21=Person to person
TTITLE22=One way out
TTITLE23=Look on yonder wall
TTITLE24=Go back home again
TTITLE25=Mean mistreatin' mama
TTITLE26=Sunnyland train
TTITLE27=You know you're wrong
EXTD=
EXTT0=
EXTT1=
EXTT2=
EXTT3=
EXTT4=
EXTT5=
EXTT6=
EXTT7=
EXTT8=
EXTT9=
EXTT10=
EXTT11=
EXTT12=
EXTT13=
EXTT14=
EXTT15=
EXTT16=
EXTT17=
EXTT18=
EXTT19=
EXTT20=
EXTT21=
EXTT22=
EXTT23=
EXTT24=
EXTT25=
EXTT26=
EXTT27=
PLAYORDER=
